PathFileType	4	(X/Y/Z)	C:/Users/beibeiliu/ov580/test_trc\sequence.6_training_dense_left.trc
DataRate	CameraRate	NumFrames	NumMarkers	Units	OrigDataRate	OrigDataStartFrame	OrigNumFrames
120	120	8	19	mm	120	29	84
Frame#	Time	ThumbCMC			ThumbMCP			ThumbIP			ThumbTip			IndexMCP			IndexPIP			IndexTip			MiddleMCP			MiddlePIP			MiddleTip			RingMCP			RingPIP			RingTip			PinkyMCP			PinkyPIP			PinkyTip			BackHand1			BackHand2			BackHand3	
		X0	Y0	Z0	X1	Y1	Z1	X2	Y2	Z2	X3	Y3	Z3	X4	Y4	Z4	X5	Y5	Z5	X6	Y6	Z6	X7	Y7	Z7	X8	Y8	Z8	X9	Y9	Z9	X10	Y10	Z10	X11	Y11	Z11	X12	Y12	Z12	X13	Y13	Z13	X14	Y14	Z14	X15	Y15	Z15	X16	Y16	Z16	X17	Y17	Z17	X18	Y18	Z18	
28	0.233333	-210.665	32.9396	108.028	-184.274	33.9773	101.498	-162.51	38.0389	82.5531	-146.755	34.8642	66.2004	-213.515	19.2291	35.0867	-199.071	15.7934	12.0038	-173.288	4.93101	-5.6578	-218.576	-1.62639	31.2816	-198.83	-10.2365	4.41023	-173.136	-20.5073	-3.88809	-218.93	-24.434	33.3507	-197.937	-30.1699	12.7717	-171.047	-34.8244	8.08397	-220.575	-42.8339	49.9875	-200.421	-53.3124	31.843	-174.554	-56.7094	21.5753	-245.735	-19.8202	78.4337	-256.355	-14.2667	111.302	-245.017	13.4707	92.945	
29	0.241667	-211.936	32.0241	111.572	-183.983	34.1602	99.2888	-161.587	43.5052	84.8574	-144.537	38.1927	66.8992	-214.518	18.1619	37.3345	-198.749	18.4204	11.6647	-173.541	11.1998	-5.05687	-219.676	-5.99792	29.0041	-199.813	-11.5036	5.8295	-167.862	-19.0117	-5.33285	-218.761	-24.2113	34.979	-198.452	-31.9642	14.8061	-170.573	-38.9815	8.99784	-218.866	-41.7885	50.4519	-200.049	-52.887	30.9418	-174.154	-54.9551	21.6236	-244.764	-15.0744	83.1929	-253.39	-13.7843	109.373	-244.315	15.0107	93.6996	
30	0.25	-212.362	31.1139	106.605	-182.354	39.6904	97.7167	-163.665	40.2091	84.2536	-145.481	36.7811	64.3673	-213.117	24.0413	32.8883	-200.59	18.2903	12.1804	-174.278	9.47987	-6.84452	-219.701	-5.1891	31.6943	-200.448	-12.6087	5.48576	-172.275	-20.711	-4.3088	-219.141	-24.8681	33.4566	-197.191	-35.3601	14.7374	-168.172	-34.4103	9.20949	-218.163	-44.3407	49.6453	-201.128	-54.4373	34.6496	-171.514	-57.8504	21.4288	-246.523	-18.8404	79.3078	-254.783	-14.5328	109.94	-244.964	14.1842	91.6615	
31	0.258333	-213.258	33.2813	109.157	-181.944	41.163	99.9337	-164.682	41.9233	84.2523	-145.114	42.2576	66.1776	-214.15	21.7018	33.1142	-199.891	22.8241	11.7208	-177.02	15.0736	-6.58233	-218.547	-2.6002	27.394	-199.482	-9.64154	5.32876	-170.547	-16.4596	-7.44405	-218.893	-26.5285	37.0179	-200.307	-32.3627	17.3038	-169.062	-35.7603	8.89164	-219.005	-45.3686	53.4955	-199.01	-56.4678	34.3714	-176.226	-58.9058	24.4036	-246.45	-16.6704	80.7497	-253.928	-11.7415	111.136	-242.339	18.6949	91.4193	
32	0.266667	-212.767	34.0853	108.281	-184.368	40.2493	100.565	-162.525	44.8671	84.6816	-147.114	39.5438	66.0788	-214.834	24.7803	38.14	-200.01	21.3159	11.2654	-179.851	13.0162	-7.32106	-220.175	-4.06575	31.3219	-203.578	-10.7264	5.78137	-173.965	-16.9387	-7.01493	-219.913	-22.891	36.4585	-202.112	-33.2608	16.9138	-172.518	-36.8924	8.76797	-218.678	-46.3336	52.3919	-199.829	-51.7587	34.0536	-172.877	-56.7662	23.6616	-246.677	-17.1139	80.0882	-254.264	-11.116	111.197	-243.684	13.1515	93.2425	
33	0.275	-213.029	36.2226	110.12	-183.486	40.6242	99.9791	-161.102	43.8307	81.3688	-147.746	40.8164	67.8916	-215.239	19.8832	37.225	-201.985	18.9345	11.4934	-181.702	13.4342	-7.7283	-219.575	-3.22304	28.9363	-204.357	-11.1216	6.42221	-177.882	-17.7985	-7.33831	-219.197	-23.3385	34.7071	-201.928	-32.7415	16.8475	-170.858	-36.9993	7.94886	-218.229	-47.4235	48.7712	-198.89	-51.8422	33.9688	-174.897	-59.6765	23.6227	-245.978	-14.5655	80.2113	-254.482	-12.5418	107.045	-245.36	13.7169	91.5492	
34	0.283333	-213.296	33.3054	110.24	-182.902	39.9096	102.383	-163.685	42.2947	85.1198	-147.644	39.2692	66.2863	-215.281	21.941	38.3801	-199.878	18.8086	9.33153	-185.774	12.7927	-7.18524	-220.393	-3.00436	27.6813	-202.987	-12.4134	4.71466	-174.04	-19.482	-9.0736	-221.787	-25.9011	36.0619	-201.4	-30.8743	13.7261	-171.68	-37.6838	6.13357	-220.619	-46.2487	53.7924	-199.964	-53.8631	32.3775	-174.872	-56.7006	22.054	-246.067	-14.9391	80.8063	-255.552	-13.5509	111.405	-244.9	12.1926	92.0664	
35	0.291667	-213.456	35.6007	112.501	-183.797	40.0101	98.5133	-165.868	41.5637	83.4814	-148.777	37.3856	65.217	-217.104	24.8608	36.9664	-200.456	24.9595	9.39297	-185.195	16.2991	-6.22552	-222.347	-5.58812	28.0177	-203.193	-9.16526	5.17289	-175.179	-15.8193	-7.79398	-222.436	-25.6635	36.1191	-201.376	-31.5279	13.595	-174.312	-34.7429	7.6182	-220.41	-45.9715	48.4671	-199.628	-52.8173	31.9865	-176.027	-57.6517	25.1844	-247.626	-16.7692	79.1776	-257.059	-14.2829	109.591	-244.58	13.5393	94.82	
